<?xml version="1.0" encoding="UTF-8"?>
<svg id="Layer_2" data-name="Layer 2" xmlns="http://www.w3.org/2000/svg" xmlns:xlink="http://www.w3.org/1999/xlink" viewBox="0 0 86.42 92.35">
    <defs>
        <style>
            .cls-1, .cls-2, .cls-3, .cls-4, .cls-5, .cls-6, .cls-7, .cls-8, .cls-9, .cls-10 {
            stroke-width: 0px;
            }

            .cls-1, .cls-11 {
            fill: none;
            }

            .cls-2 {
            fill: url(#linear-gradient);
            }

            .cls-11 {
            stroke: #fff;
            stroke-miterlimit: 10;
            }

            .cls-3 {
            fill: url(#linear-gradient-4);
            }

            .cls-4 {
            fill: url(#linear-gradient-2);
            }

            .cls-5 {
            fill: url(#linear-gradient-3);
            }

            .cls-6 {
            fill: url(#linear-gradient-8);
            }

            .cls-7 {
            fill: url(#linear-gradient-7);
            }

            .cls-8 {
            fill: url(#linear-gradient-5);
            }

            .cls-9 {
            fill: url(#linear-gradient-6);
            }

            .cls-10 {
            fill: #fff;
            }
        </style>
        <linearGradient id="linear-gradient" x1="33.83" y1="56.81" x2="42.28" y2="56.81" gradientUnits="userSpaceOnUse">
            <stop offset="0" stop-color="#1579ff"/>
            <stop offset="1" stop-color="#6ad3ff"/>
        </linearGradient>
        <linearGradient id="linear-gradient-2" y1="69.74" y2="69.74" xlink:href="#linear-gradient"/>
        <linearGradient id="linear-gradient-3" x1="44.14" y1="69.74" x2="52.59" y2="69.74" xlink:href="#linear-gradient"/>
        <linearGradient id="linear-gradient-4" x1="50.07" y1="66.88" x2="55.21" y2="66.88" xlink:href="#linear-gradient"/>
        <linearGradient id="linear-gradient-5" x1="31.21" y1="59.68" x2="36.35" y2="59.68" xlink:href="#linear-gradient"/>
        <linearGradient id="linear-gradient-6" x1="31.21" y1="66.88" x2="36.35" y2="66.88" xlink:href="#linear-gradient"/>
        <linearGradient id="linear-gradient-7" x1="50.07" y1="59.68" x2="55.21" y2="59.68" xlink:href="#linear-gradient"/>
        <linearGradient id="linear-gradient-8" x1="44.14" x2="52.59" xlink:href="#linear-gradient"/>
    </defs>
    <g id="Layer_1-2" data-name="Layer 1">
        <g>
            <path class="cls-11" d="M.5,17.8h0c0,30.52,16.28,58.72,42.71,73.98h0s0,0,0,0c26.43-15.26,42.71-43.46,42.71-73.98h0S43.21.54,43.21.54L.5,17.8Z"/>
            <g>
                <path class="cls-10" d="M32.45,41.65h-14.57s0-25.08,0-25.08h6.47v19.34h8.1v5.75Z"/>
                <path class="cls-10" d="M51.42,37.56c0,2.98-1.57,4.08-4.43,4.08h-8.23c-2.86,0-4.4-1.1-4.4-4.08v-21h6.47v19.34h4.11v-19.34h6.47v21Z"/>
                <path class="cls-10" d="M68.53,41.65h-14.57v-25.08h6.47v19.34h8.1v5.75Z"/>
            </g>
            <g>
                <path class="cls-1" d="M70.07,56.62h-12.32c.38.83.69,1.7.93,2.6h9.97c.49-.86.96-1.73,1.42-2.6Z"/>
                <path class="cls-1" d="M16.36,56.62c.46.88.93,1.75,1.42,2.6h9.97c.24-.9.54-1.77.93-2.6h-12.32Z"/>
                <path class="cls-1" d="M62.75,67.84h-4.21c-.27.91-.62,1.77-1.04,2.6h3.07c.75-.85,1.48-1.72,2.18-2.6Z"/>
                <path class="cls-1" d="M23.67,67.84c.71.88,1.43,1.75,2.18,2.6h3.07c-.42-.83-.77-1.7-1.04-2.6h-4.21Z"/>
                <path class="cls-1" d="M27.26,62.23h-7.63c.57.88,1.15,1.75,1.76,2.6h5.9c-.05-.51-.08-1.03-.08-1.56,0-.35.03-.7.05-1.04Z"/>
                <path class="cls-1" d="M66.79,62.23h-7.63c.02.35.05.69.05,1.04,0,.53-.03,1.05-.08,1.56h5.9c.61-.85,1.19-1.72,1.76-2.6Z"/>
                <path class="cls-1" d="M32.94,51.01H13.73c.36.88.75,1.74,1.14,2.6h15.61c.73-.95,1.55-1.83,2.46-2.6Z"/>
                <path class="cls-1" d="M72.69,51.01h-19.22c.92.77,1.74,1.65,2.46,2.6h15.61c.4-.86.78-1.73,1.14-2.6Z"/>
                <path class="cls-10" d="M25.86,70.45c.91,1.03,1.84,2.03,2.81,3.01h2.2c-.76-.92-1.4-1.93-1.94-3.01h-3.07Z"/>
                <path class="cls-10" d="M60.56,70.45h-3.07c-.54,1.08-1.18,2.09-1.94,3.01h2.2c.97-.98,1.91-1.98,2.81-3.01Z"/>
                <path class="cls-10" d="M65.03,64.84h-5.9c-.1,1.04-.3,2.04-.59,3.01h4.21c.79-.98,1.55-1.98,2.28-3.01Z"/>
                <path class="cls-10" d="M21.39,64.84c.73,1.02,1.5,2.02,2.28,3.01h4.21c-.29-.97-.49-1.97-.59-3.01h-5.9Z"/>
                <path class="cls-10" d="M17.78,59.22c.59,1.02,1.21,2.02,1.85,3.01h7.63c.07-1.03.23-2.04.49-3.01h-9.97Z"/>
                <path class="cls-10" d="M68.64,59.22h-9.97c.25.97.42,1.98.49,3.01h7.63c.64-.99,1.26-1.99,1.85-3.01Z"/>
                <path class="cls-10" d="M12.6,48.08c.36.98.73,1.96,1.13,2.93h19.22c1.54-1.29,3.32-2.29,5.27-2.93H12.6Z"/>
                <path class="cls-10" d="M73.82,48.08h-25.61c1.95.64,3.73,1.64,5.27,2.93h19.22c.4-.97.77-1.94,1.13-2.93Z"/>
                <path class="cls-10" d="M14.87,53.61c.47,1.02.97,2.02,1.48,3.01h12.32c.49-1.07,1.1-2.08,1.81-3.01h-15.61Z"/>
                <path class="cls-10" d="M71.55,53.61h-15.61c.71.93,1.31,1.94,1.81,3.01h12.32c.52-.99,1.01-1.99,1.48-3.01Z"/>
            </g>
            <g>
                <path class="cls-2" d="M33.83,55.74c2.23,1.44,3.79,3.83,4.08,6.61h4.37v-11.07c-3.42.26-6.43,1.95-8.45,4.46Z"/>
                <path class="cls-4" d="M33.83,70.81c2.02,2.52,5.03,4.2,8.45,4.46v-11.07h-4.37c-.29,2.78-1.84,5.17-4.08,6.61Z"/>
                <path class="cls-5" d="M48.51,64.2h-4.37v11.07c3.42-.26,6.43-1.95,8.45-4.46-2.23-1.44-3.79-3.83-4.08-6.61Z"/>
                <path class="cls-3" d="M50.07,64.2c.28,2.25,1.57,4.19,3.41,5.34.97-1.58,1.59-3.39,1.74-5.34h-5.14Z"/>
                <path class="cls-8" d="M36.35,62.35c-.28-2.25-1.57-4.19-3.41-5.34-.97,1.58-1.59,3.39-1.74,5.34h5.14Z"/>
                <path class="cls-9" d="M32.94,69.55c1.83-1.16,3.13-3.09,3.41-5.34h-5.14c.15,1.95.77,3.76,1.74,5.34Z"/>
                <path class="cls-7" d="M50.07,62.35h5.14c-.15-1.95-.77-3.76-1.74-5.34-1.83,1.16-3.13,3.09-3.41,5.34Z"/>
                <path class="cls-6" d="M52.59,55.74c-2.02-2.52-5.03-4.2-8.45-4.46v11.07h4.37c.29-2.78,1.84-5.17,4.08-6.61Z"/>
            </g>
        </g>
    </g>
</svg>