<?xml version="1.0" encoding="UTF-8"?>
<svg id="Layer_2" data-name="Layer 2" xmlns="http://www.w3.org/2000/svg" xmlns:xlink="http://www.w3.org/1999/xlink" viewBox="0 0 79.35 84.9">
  <defs>
    <style>
      .cls-1 {
        fill: none;
      }

      .cls-1, .cls-2, .cls-3, .cls-4, .cls-5, .cls-6, .cls-7, .cls-8, .cls-9, .cls-10, .cls-11, .cls-12, .cls-13, .cls-14, .cls-15, .cls-16 {
        stroke-width: 0px;
      }

      .cls-2 {
        fill: url(#linear-gradient);
      }

      .cls-3 {
        fill: url(#linear-gradient-11);
      }

      .cls-4 {
        fill: url(#linear-gradient-12);
      }

      .cls-5 {
        fill: url(#linear-gradient-13);
      }

      .cls-6 {
        fill: url(#linear-gradient-10);
      }

      .cls-7 {
        fill: url(#linear-gradient-14);
      }

      .cls-17 {
        fill: #0a0a0a;
        stroke: #fff;
        stroke-miterlimit: 10;
        stroke-width: 3px;
      }

      .cls-8 {
        fill: url(#linear-gradient-4);
      }

      .cls-9 {
        fill: url(#linear-gradient-2);
      }

      .cls-10 {
        fill: url(#linear-gradient-3);
      }

      .cls-11 {
        fill: url(#linear-gradient-8);
      }

      .cls-12 {
        fill: url(#linear-gradient-9);
      }

      .cls-13 {
        fill: url(#linear-gradient-7);
      }

      .cls-14 {
        fill: url(#linear-gradient-5);
      }

      .cls-15 {
        fill: url(#linear-gradient-6);
      }

      .cls-16 {
        fill: #fff;
      }
    </style>
    <linearGradient id="linear-gradient" x1="24.83" y1="67.98" x2="24.83" y2="64.98" gradientUnits="userSpaceOnUse">
      <stop offset="0" stop-color="#1579ff"/>
      <stop offset="1" stop-color="#6ad3ff"/>
    </linearGradient>
    <linearGradient id="linear-gradient-2" x1="54.52" x2="54.52" xlink:href="#linear-gradient"/>
    <linearGradient id="linear-gradient-3" x1="58.25" y1="61.98" x2="58.25" y2="58.98" xlink:href="#linear-gradient"/>
    <linearGradient id="linear-gradient-4" x1="21.1" y1="61.98" x2="21.1" y2="58.98" xlink:href="#linear-gradient"/>
    <linearGradient id="linear-gradient-5" x1="19.23" y1="55.98" x2="19.23" y2="52.98" xlink:href="#linear-gradient"/>
    <linearGradient id="linear-gradient-6" x1="60.12" y1="55.98" x2="60.12" y2="52.98" xlink:href="#linear-gradient"/>
    <linearGradient id="linear-gradient-7" x1="21.87" y1="44.98" x2="21.87" y2="41.98" xlink:href="#linear-gradient"/>
    <linearGradient id="linear-gradient-8" x1="57.48" y1="44.98" x2="57.48" y2="41.98" xlink:href="#linear-gradient"/>
    <linearGradient id="linear-gradient-9" x1="19.14" y1="50.98" x2="19.14" y2="47.98" xlink:href="#linear-gradient"/>
    <linearGradient id="linear-gradient-10" x1="60.21" y1="50.98" x2="60.21" y2="47.98" xlink:href="#linear-gradient"/>
    <linearGradient id="linear-gradient-11" x1="400.65" y1="428.72" x2="402.77" y2="428.72" gradientTransform="translate(-362.04 -352.34)" xlink:href="#linear-gradient"/>
    <linearGradient id="linear-gradient-12" x1="448.73" y1="380.64" x2="450.86" y2="380.64" gradientTransform="translate(-410.12 -372.26)" xlink:href="#linear-gradient"/>
    <linearGradient id="linear-gradient-13" x1="451.22" y1="384.16" x2="452.98" y2="384.16" gradientTransform="translate(-408.3 -374.92)" xlink:href="#linear-gradient"/>
    <linearGradient id="linear-gradient-14" x1="445.39" y1="378.33" x2="447.16" y2="378.33" gradientTransform="translate(-410.72 -369.09)" xlink:href="#linear-gradient"/>
  </defs>
  <g id="Layer_1-2" data-name="Layer 1">
    <g>
      <path class="cls-17" d="M1.5,17.05h0c0,27.28,14.55,52.48,38.18,66.12h0s0,0,0,0c23.62-13.64,38.18-38.84,38.18-66.12h0S39.68,1.62,39.68,1.62L1.5,17.05Z"/>
      <g>
        <path class="cls-16" d="M28.96,39.98h-14s0-25,0-25h6v19h8v6Z"/>
        <path class="cls-16" d="M47.96,35.91c0,2.97-1.57,4.07-4.41,4.07h-8.2c-2.85,0-4.38-1.1-4.38-4.07V14.98h6v19h4V14.98h7v20.93Z"/>
        <path class="cls-16" d="M64.96,39.98h-14V14.98h6v19h8v6Z"/>
      </g>
      <g>
        <path class="cls-1" d="M66.53,50.98h-12.32c.38.71.69,1.58.93,3h9.97c.49-1.37.96-2.24,1.42-3Z"/>
        <path class="cls-1" d="M12.82,50.98c.46.76.93,1.63,1.42,3h9.97c.24-1.42.54-2.29.93-3h-12.32Z"/>
        <path class="cls-1" d="M59.21,61.98h-4.21c-.27,1.01-.62,1.87-1.04,3h3.07c.75-1.15,1.48-2.01,2.18-3Z"/>
        <path class="cls-1" d="M20.14,61.98c.71.99,1.43,1.85,2.18,3h3.07c-.42-1.13-.77-1.99-1.04-3h-4.21Z"/>
        <path class="cls-1" d="M23.73,55.98h-7.63c.57,1.37,1.15,2.24,1.76,3h5.9c-.05-.42-.08-.94-.08-1.47,0-.35.03-.7.05-1.53Z"/>
        <path class="cls-1" d="M63.26,55.98h-7.63c.02.84.05,1.18.05,1.53,0,.53-.03,1.05-.08,1.47h5.9c.61-.76,1.19-1.63,1.76-3Z"/>
        <path class="cls-1" d="M29.41,44.98H10.19c.36,1.14.75,2.01,1.14,3h15.61c.73-1.08,1.55-1.96,2.46-3Z"/>
        <path class="cls-1" d="M69.16,44.98h-19.22c.92,1.04,1.74,1.92,2.46,3h15.61c.4-.99.78-1.86,1.14-3Z"/>
        <path class="cls-2" d="M22.33,64.98c.9,1.03,1.84,2.03,2.8,3h2.19c-.76-.92-1.4-1.93-1.94-3h-3.06Z"/>
        <path class="cls-9" d="M57.02,64.98h-3.06c-.54,1.07-1.18,2.08-1.94,3h2.19c.97-.97,1.9-1.97,2.8-3Z"/>
        <path class="cls-10" d="M61.49,58.98h-5.88c-.1,1.03-.3,2.03-.59,3h4.19c.78-.98,1.55-1.98,2.28-3Z"/>
        <path class="cls-8" d="M17.87,58.98c.73,1.02,1.49,2.02,2.28,3h4.19c-.29-.97-.49-1.97-.59-3h-5.88Z"/>
        <path class="cls-14" d="M14.26,52.98c.59,1.02,1.21,2.01,1.85,3h7.61c.07-1.03.23-2.03.48-3h-9.94Z"/>
        <path class="cls-15" d="M65.09,52.98h-9.94c.25.97.42,1.97.48,3h7.61c.64-.99,1.26-1.98,1.85-3Z"/>
        <path class="cls-13" d="M8.75,41.98c.37,1.01.75,2.01,1.16,3h19.69c1.58-1.32,3.4-2.34,5.4-3H8.75Z"/>
        <path class="cls-11" d="M70.6,41.98h-26.25c2,.66,3.83,1.68,5.4,3h19.69c.41-.99.79-1.99,1.16-3Z"/>
        <path class="cls-12" d="M11.36,47.98c.47,1.01.96,2.01,1.48,3h12.28c.49-1.07,1.1-2.07,1.8-3h-15.56Z"/>
        <path class="cls-6" d="M67.99,47.98h-15.56c.7.93,1.31,1.93,1.8,3h12.28c.52-.99,1.01-1.99,1.48-3Z"/>
      </g>
      <g>
        <path class="cls-16" d="M29.48,49.57c2.51,1.61,4.25,4.3,4.57,7.41h4.91v-12.42c-3.83.29-7.21,2.19-9.48,5.01Z"/>
        <path class="cls-16" d="M29.48,66.39c2.27,2.82,5.65,4.72,9.48,5.01v-12.42h-4.9c-.32,3.12-2.07,5.8-4.57,7.41Z"/>
        <path class="cls-16" d="M45.86,58.98h-4.9v12.42c3.83-.29,7.21-2.19,9.48-5.01-2.51-1.61-4.25-4.3-4.57-7.41Z"/>
        <path class="cls-16" d="M47.37,58.98c.32,2.53,1.76,4.7,3.82,5.99,1.08-1.77,1.78-3.81,1.95-5.99h-5.77Z"/>
        <path class="cls-16" d="M31.98,56.98c-.32-2.53-1.76-4.7-3.82-5.99-1.08,1.77-1.78,3.81-1.95,5.99h5.77Z"/>
        <path class="cls-16" d="M28.16,64.97c2.06-1.3,3.51-3.47,3.82-5.99h-5.77c.17,2.19.86,4.22,1.95,5.99Z"/>
        <path class="cls-16" d="M47.37,56.98h5.77c-.17-2.19-.86-4.22-1.95-5.99-2.06,1.3-3.51,3.47-3.82,5.99Z"/>
        <path class="cls-16" d="M50.44,49.57c-2.27-2.82-5.65-4.72-9.48-5.01v12.42h4.91c.32-3.12,2.07-5.8,4.57-7.41Z"/>
      </g>
      <rect class="cls-3" x="38.61" y="75.32" width="2.12" height="2.12" transform="translate(-42.39 50.43) rotate(-45)"/>
      <g>
        <rect class="cls-4" x="38.61" y="7.32" width="2.12" height="2.12" transform="translate(5.69 30.51) rotate(-45)"/>
        <rect class="cls-5" x="42.91" y="8.36" width="1.77" height="1.77" transform="translate(6.29 33.68) rotate(-45)"/>
        <rect class="cls-7" x="34.67" y="8.36" width="1.77" height="1.77" transform="translate(3.88 27.85) rotate(-45)"/>
      </g>
    </g>
  </g>
</svg>